<svg width="15" height="15" viewBox="0 0 15 15" fill="none" xmlns="http://www.w3.org/2000/svg">
<mask id="mask0_1417_79" style="mask-type:alpha" maskUnits="userSpaceOnUse" x="2" y="2" width="11" height="11">
<circle cx="7.0921" cy="7.09168" r="5.01723" transform="rotate(43.1362 7.0921 7.09168)" fill="#ECE6B6" fill-opacity="0.45"/>
</mask>
<g mask="url(#mask0_1417_79)">
<rect x="9.99805" y="2.07227" width="1.71761" height="5.15283" transform="rotate(43.1362 9.99805 2.07227)" fill="url(#paint0_linear_1417_79)"/>
<rect width="2.31763" height="4.98988" transform="matrix(-0.729731 -0.683734 -0.683734 0.729731 13.1904 5.68262)" fill="url(#paint1_linear_1417_79)"/>
<rect width="2.31763" height="6.21191" transform="matrix(-0.729731 -0.683734 -0.683734 0.729731 13.5342 6.58496)" fill="url(#paint2_linear_1417_79)"/>
<rect width="2.31763" height="6.21191" transform="matrix(-0.729731 -0.683734 -0.683734 0.729731 14.3701 8.58496)" fill="url(#paint3_linear_1417_79)"/>
<rect width="3.08544" height="7.86484" transform="matrix(-0.729731 -0.683734 -0.683734 0.729731 12.0605 1.10938)" fill="url(#paint4_linear_1417_79)"/>
<rect width="1.80278" height="9.41694" transform="matrix(-0.729731 -0.683734 -0.683734 0.729731 11.7715 3.84082)" fill="url(#paint5_linear_1417_79)"/>
<rect width="1.41765" height="9.97611" transform="matrix(-0.729731 -0.683734 -0.683734 0.729731 14.8555 0.969727)" fill="url(#paint6_linear_1417_79)"/>
<rect width="2.1973" height="9.97611" transform="matrix(-0.729731 -0.683734 -0.683734 0.729731 9.85645 0.501953)" fill="url(#paint7_linear_1417_79)"/>
<rect width="2.1973" height="9.97611" transform="matrix(-0.729731 -0.683734 -0.683734 0.729731 11.8564 -0.49707)" fill="url(#paint8_linear_1417_79)"/>
<rect width="2.1973" height="9.97611" transform="matrix(-0.729731 -0.683734 -0.683734 0.729731 8.85645 -0.498047)" fill="url(#paint9_linear_1417_79)"/>
<rect x="6.82031" y="-1.27637" width="11.316" height="11.2097" transform="rotate(43.1362 6.82031 -1.27637)" fill="url(#paint10_linear_1417_79)"/>
</g>
<defs>
<linearGradient id="paint0_linear_1417_79" x1="10.8569" y1="2.07227" x2="10.8569" y2="7.22509" gradientUnits="userSpaceOnUse">
<stop stop-color="#EAEA87"/>
<stop offset="1" stop-color="#D9D9D9" stop-opacity="0"/>
</linearGradient>
<linearGradient id="paint1_linear_1417_79" x1="1.15881" y1="0" x2="1.15881" y2="4.98988" gradientUnits="userSpaceOnUse">
<stop stop-color="#EAEA87"/>
<stop offset="1" stop-color="#D9D9D9" stop-opacity="0"/>
</linearGradient>
<linearGradient id="paint2_linear_1417_79" x1="1.15881" y1="0" x2="1.15881" y2="6.21191" gradientUnits="userSpaceOnUse">
<stop stop-color="#EAEA87"/>
<stop offset="1" stop-color="#D9D9D9" stop-opacity="0"/>
</linearGradient>
<linearGradient id="paint3_linear_1417_79" x1="1.15881" y1="0" x2="1.15881" y2="6.21191" gradientUnits="userSpaceOnUse">
<stop stop-color="#EAEA87"/>
<stop offset="1" stop-color="#D9D9D9" stop-opacity="0"/>
</linearGradient>
<linearGradient id="paint4_linear_1417_79" x1="1.54272" y1="0" x2="1.54272" y2="7.86484" gradientUnits="userSpaceOnUse">
<stop stop-color="#EAEA87"/>
<stop offset="1" stop-color="#D9D9D9" stop-opacity="0"/>
</linearGradient>
<linearGradient id="paint5_linear_1417_79" x1="0.901388" y1="0" x2="0.901388" y2="9.41694" gradientUnits="userSpaceOnUse">
<stop stop-color="#EAEA87"/>
<stop offset="1" stop-color="#D9D9D9" stop-opacity="0"/>
</linearGradient>
<linearGradient id="paint6_linear_1417_79" x1="0.708823" y1="0" x2="0.708823" y2="9.97611" gradientUnits="userSpaceOnUse">
<stop stop-color="#EAEA87"/>
<stop offset="1" stop-color="#D9D9D9" stop-opacity="0"/>
</linearGradient>
<linearGradient id="paint7_linear_1417_79" x1="1.09865" y1="0" x2="1.09865" y2="9.97611" gradientUnits="userSpaceOnUse">
<stop stop-color="#EAEA87"/>
<stop offset="1" stop-color="#D9D9D9" stop-opacity="0"/>
</linearGradient>
<linearGradient id="paint8_linear_1417_79" x1="1.09865" y1="0" x2="1.09865" y2="9.97611" gradientUnits="userSpaceOnUse">
<stop stop-color="#EAEA87"/>
<stop offset="1" stop-color="#D9D9D9" stop-opacity="0"/>
</linearGradient>
<linearGradient id="paint9_linear_1417_79" x1="1.09865" y1="0" x2="1.09865" y2="9.97611" gradientUnits="userSpaceOnUse">
<stop stop-color="#EAEA87"/>
<stop offset="1" stop-color="#D9D9D9" stop-opacity="0"/>
</linearGradient>
<linearGradient id="paint10_linear_1417_79" x1="12.4783" y1="-1.27637" x2="12.4783" y2="9.93329" gradientUnits="userSpaceOnUse">
<stop stop-color="#EAEA87"/>
<stop offset="1" stop-color="#D9D9D9" stop-opacity="0"/>
</linearGradient>
</defs>
</svg>
